<svg width="128" height="128" viewBox="0 0 128 128" fill="none" xmlns="http://www.w3.org/2000/svg">
  <!-- Background circle -->
  <circle cx="64" cy="64" r="64" fill="url(#gradient)"/>
  
  <!-- Gradient definitions -->
  <defs>
    <linearGradient id="gradient" x1="0%" y1="0%" x2="100%" y2="100%">
      <stop offset="0%" style="stop-color:#3b82f6;stop-opacity:1" />
      <stop offset="100%" style="stop-color:#10b981;stop-opacity:1" />
    </linearGradient>
    <linearGradient id="brainGradient" x1="0%" y1="0%" x2="100%" y2="100%">
      <stop offset="0%" style="stop-color:#ffffff;stop-opacity:0.9" />
      <stop offset="100%" style="stop-color:#f3f4f6;stop-opacity:0.8" />
    </linearGradient>
    <linearGradient id="neuralGradient" x1="0%" y1="0%" x2="100%" y2="100%">
      <stop offset="0%" style="stop-color:#10b981;stop-opacity:1" />
      <stop offset="100%" style="stop-color:#3b82f6;stop-opacity:1" />
    </linearGradient>
  </defs>
  
  <!-- Main brain structure -->
  <path d="M64 20 C 45 20, 30 35, 30 50 C 30 65, 45 80, 64 80 C 83 80, 98 65, 98 50 C 98 35, 83 20, 64 20 Z" fill="url(#brainGradient)" stroke="#ffffff" stroke-width="2"/>
  
  <!-- Brain hemispheres -->
  <path d="M64 25 C 48 25, 35 38, 35 50 C 35 62, 48 75, 64 75 C 80 75, 93 62, 93 50 C 93 38, 80 25, 64 25 Z" fill="none" stroke="#3b82f6" stroke-width="1.5" opacity="0.6"/>
  
  <!-- Neural network connections -->
  <circle cx="40" cy="35" r="2" fill="url(#neuralGradient)"/>
  <circle cx="88" cy="35" r="2" fill="url(#neuralGradient)"/>
  <circle cx="35" cy="45" r="2" fill="url(#neuralGradient)"/>
  <circle cx="93" cy="45" r="2" fill="url(#neuralGradient)"/>
  <circle cx="32" cy="55" r="2" fill="url(#neuralGradient)"/>
  <circle cx="96" cy="55" r="2" fill="url(#neuralGradient)"/>
  <circle cx="35" cy="65" r="2" fill="url(#neuralGradient)"/>
  <circle cx="93" cy="65" r="2" fill="url(#neuralGradient)"/>
  <circle cx="40" cy="75" r="2" fill="url(#neuralGradient)"/>
  <circle cx="88" cy="75" r="2" fill="url(#neuralGradient)"/>
  
  <!-- Central neural connections -->
  <circle cx="64" cy="30" r="2" fill="url(#neuralGradient)"/>
  <circle cx="64" cy="40" r="2" fill="url(#neuralGradient)"/>
  <circle cx="64" cy="50" r="2" fill="url(#neuralGradient)"/>
  <circle cx="64" cy="60" r="2" fill="url(#neuralGradient)"/>
  <circle cx="64" cy="70" r="2" fill="url(#neuralGradient)"/>
  
  <!-- Neural network lines -->
  <line x1="40" y1="35" x2="64" y2="30" stroke="url(#neuralGradient)" stroke-width="1" opacity="0.7"/>
  <line x1="88" y1="35" x2="64" y2="30" stroke="url(#neuralGradient)" stroke-width="1" opacity="0.7"/>
  <line x1="35" y1="45" x2="64" y2="40" stroke="url(#neuralGradient)" stroke-width="1" opacity="0.7"/>
  <line x1="93" y1="45" x2="64" y2="40" stroke="url(#neuralGradient)" stroke-width="1" opacity="0.7"/>
  <line x1="32" y1="55" x2="64" y2="50" stroke="url(#neuralGradient)" stroke-width="1" opacity="0.7"/>
  <line x1="96" y1="55" x2="64" y2="50" stroke="url(#neuralGradient)" stroke-width="1" opacity="0.7"/>
  <line x1="35" y1="65" x2="64" y2="60" stroke="url(#neuralGradient)" stroke-width="1" opacity="0.7"/>
  <line x1="93" y1="65" x2="64" y2="60" stroke="url(#neuralGradient)" stroke-width="1" opacity="0.7"/>
  <line x1="40" y1="75" x2="64" y2="70" stroke="url(#neuralGradient)" stroke-width="1" opacity="0.7"/>
  <line x1="88" y1="75" x2="64" y2="70" stroke="url(#neuralGradient)" stroke-width="1" opacity="0.7"/>
  
  <!-- Cross-hemisphere connections -->
  <line x1="48" y1="30" x2="80" y2="30" stroke="url(#neuralGradient)" stroke-width="0.8" opacity="0.5"/>
  <line x1="48" y1="40" x2="80" y2="40" stroke="url(#neuralGradient)" stroke-width="0.8" opacity="0.5"/>
  <line x1="48" y1="50" x2="80" y2="50" stroke="url(#neuralGradient)" stroke-width="0.8" opacity="0.5"/>
  <line x1="48" y1="60" x2="80" y2="60" stroke="url(#neuralGradient)" stroke-width="0.8" opacity="0.5"/>
  <line x1="48" y1="70" x2="80" y2="70" stroke="url(#neuralGradient)" stroke-width="0.8" opacity="0.5"/>
  
  <!-- Data flow indicators -->
  <circle cx="64" cy="85" r="3" fill="#10b981"/>
  <circle cx="64" cy="90" r="2" fill="#10b981" opacity="0.7"/>
  <circle cx="64" cy="94" r="1" fill="#10b981" opacity="0.5"/>
  
  <!-- Tech circuit elements -->
  <rect x="25" y="25" width="3" height="3" fill="#3b82f6" opacity="0.8"/>
  <rect x="100" y="25" width="3" height="3" fill="#3b82f6" opacity="0.8"/>
  <rect x="25" y="100" width="3" height="3" fill="#3b82f6" opacity="0.8"/>
  <rect x="100" y="100" width="3" height="3" fill="#3b82f6" opacity="0.8"/>
  
  <!-- Pulsing effect circles -->
  <circle cx="64" cy="64" r="45" fill="none" stroke="#10b981" stroke-width="1" opacity="0.3">
    <animate attributeName="opacity" values="0.3;0.8;0.3" dur="3s" repeatCount="indefinite"/>
  </circle>
  <circle cx="64" cy="64" r="55" fill="none" stroke="#3b82f6" stroke-width="1" opacity="0.2">
    <animate attributeName="opacity" values="0.2;0.6;0.2" dur="4s" repeatCount="indefinite"/>
  </circle>
</svg>


















